<svg version="1.1" xmlns="http://www.w3.org/2000/svg" xmlns:xlink="http://www.w3.org/1999/xlink" width="877" height="812"><defs/><g><g transform="translate(-14,-54) scale(1,1)"><rect fill="#C0C0C0" stroke="none" x="79" y="103" width="158" height="355" opacity="0.2"/></g><g transform="translate(-14,-54) scale(1,1)"><rect fill="#ffffff" stroke="none" x="72" y="96" width="158" height="355"/></g><g transform="translate(-14,-54) scale(1,1)"><path fill="none" stroke="#000000" d="M 72 96 L 230 96 L 230 451 L 72 451 L 72 96 Z Z" stroke-miterlimit="10"/></g><g transform="translate(-14,-54) scale(1,1)"><path fill="none" stroke="#000000" d="M 72 121 L 230 121" stroke-miterlimit="10"/></g><g transform="translate(-14,-54) scale(1,1)"><path fill="none" stroke="#000000" d="M 72 399 L 230 399" stroke-miterlimit="10"/></g><g transform="translate(-14,-54) scale(1,1)"><g><path fill="none" stroke="none"/><text fill="#000000" stroke="none" font-family="Arial" font-size="13px" font-style="normal" font-weight="bold" text-decoration="none" x="117.5" y="115.5">PowerStats</text></g></g><g transform="translate(-14,-54) scale(1,1)"><g><path fill="none" stroke="none"/><text fill="#000000" stroke="none" font-family="Arial" font-size="13px" font-style="normal" font-weight="normal" text-decoration="none" x="77" y="138.5">-generated_total: float</text></g></g><g transform="translate(-14,-54) scale(1,1)"><g><path fill="none" stroke="none"/><text fill="#000000" stroke="none" font-family="Arial" font-size="13px" font-style="normal" font-weight="normal" text-decoration="none" x="77" y="153.5">-readings_total: int</text></g></g><g transform="translate(-14,-54) scale(1,1)"><g><path fill="none" stroke="none"/><text fill="#000000" stroke="none" font-family="Arial" font-size="13px" font-style="normal" font-weight="normal" text-decoration="none" x="77" y="168.5">-status_last: int</text></g></g><g transform="translate(-14,-54) scale(1,1)"><g><path fill="none" stroke="none"/><text fill="#000000" stroke="none" font-family="Arial" font-size="13px" font-style="normal" font-weight="normal" text-decoration="none" x="77" y="183.5">-amps_total: float</text></g></g><g transform="translate(-14,-54) scale(1,1)"><g><path fill="none" stroke="none"/><text fill="#000000" stroke="none" font-family="Arial" font-size="13px" font-style="normal" font-weight="normal" text-decoration="none" x="77" y="198.5">-volts_total: float</text></g></g><g transform="translate(-14,-54) scale(1,1)"><g><path fill="none" stroke="none"/><text fill="#000000" stroke="none" font-family="Arial" font-size="13px" font-style="normal" font-weight="normal" text-decoration="none" x="77" y="213.5">-energy_daily: float</text></g></g><g transform="translate(-14,-54) scale(1,1)"><g><path fill="none" stroke="none"/><text fill="#000000" stroke="none" font-family="Arial" font-size="13px" font-style="normal" font-weight="normal" text-decoration="none" x="77" y="228.5">-generated_daily: float</text></g></g><g transform="translate(-14,-54) scale(1,1)"><g><path fill="none" stroke="none"/><text fill="#000000" stroke="none" font-family="Arial" font-size="13px" font-style="normal" font-weight="normal" text-decoration="none" x="77" y="243.5">-readings_daily: int</text></g></g><g transform="translate(-14,-54) scale(1,1)"><g><path fill="none" stroke="none"/><text fill="#000000" stroke="none" font-family="Arial" font-size="13px" font-style="normal" font-weight="normal" text-decoration="none" x="77" y="258.5">-output_last: time</text></g></g><g transform="translate(-14,-54) scale(1,1)"><g><path fill="none" stroke="none"/><text fill="#000000" stroke="none" font-family="Arial" font-size="13px" font-style="normal" font-weight="normal" text-decoration="none" x="77" y="273.5">-generated_peak: float</text></g></g><g transform="translate(-14,-54) scale(1,1)"><g><path fill="none" stroke="none"/><text fill="#000000" stroke="none" font-family="Arial" font-size="13px" font-style="normal" font-weight="normal" text-decoration="none" x="77" y="288.5">-time_peak: time</text></g></g><g transform="translate(-14,-54) scale(1,1)"><g><path fill="none" stroke="none"/><text fill="#000000" stroke="none" font-family="Arial" font-size="13px" font-style="normal" font-weight="normal" text-decoration="none" x="77" y="303.5">-reading_is_full_day: bool</text></g></g><g transform="translate(-14,-54) scale(1,1)"><g><path fill="none" stroke="none"/><text fill="#000000" stroke="none" font-family="Arial" font-size="13px" font-style="normal" font-weight="normal" text-decoration="none" x="77" y="318.5">-temperature_max: float</text></g></g><g transform="translate(-14,-54) scale(1,1)"><g><path fill="none" stroke="none"/><text fill="#000000" stroke="none" font-family="Arial" font-size="13px" font-style="normal" font-weight="normal" text-decoration="none" x="77" y="333.5">-temperature_min: float</text></g></g><g transform="translate(-14,-54) scale(1,1)"><g><path fill="none" stroke="none"/><text fill="#000000" stroke="none" font-family="Arial" font-size="13px" font-style="normal" font-weight="normal" text-decoration="none" x="77" y="348.5">-generated_average: float</text></g></g><g transform="translate(-14,-54) scale(1,1)"><g><path fill="none" stroke="none"/><text fill="#000000" stroke="none" font-family="Arial" font-size="13px" font-style="normal" font-weight="normal" text-decoration="none" x="77" y="363.5">-current_average: float</text></g></g><g transform="translate(-14,-54) scale(1,1)"><g><path fill="none" stroke="none"/><text fill="#000000" stroke="none" font-family="Arial" font-size="13px" font-style="normal" font-weight="normal" text-decoration="none" x="77" y="378.5">-voltage_average: float</text></g></g><g transform="translate(-14,-54) scale(1,1)"><g><path fill="none" stroke="none"/><text fill="#000000" stroke="none" font-family="Arial" font-size="13px" font-style="normal" font-weight="normal" text-decoration="none" x="77" y="393.5">-reading_time: time</text></g></g><g transform="translate(-14,-54) scale(1,1)"><g><path fill="none" stroke="none"/><text fill="#000000" stroke="none" font-family="Arial" font-size="13px" font-style="normal" font-weight="normal" text-decoration="none" x="77" y="416.5">+get_stats()</text></g></g><g transform="translate(-14,-54) scale(1,1)"><g><path fill="none" stroke="none"/><text fill="#000000" stroke="none" font-family="Arial" font-size="13px" font-style="normal" font-weight="normal" text-decoration="none" x="77" y="431.5">+update_stats()</text></g></g><g transform="translate(-14,-54) scale(1,1)"><g><path fill="none" stroke="none"/><text fill="#000000" stroke="none" font-family="Arial" font-size="13px" font-style="normal" font-weight="normal" text-decoration="none" x="77" y="446.5">+clear_stats()</text></g></g><g transform="translate(-14,-54) scale(1,1)"><rect fill="#C0C0C0" stroke="none" x="343" y="335" width="186" height="295" opacity="0.2"/></g><g transform="translate(-14,-54) scale(1,1)"><rect fill="#ffffff" stroke="none" x="336" y="328" width="186" height="295"/></g><g transform="translate(-14,-54) scale(1,1)"><path fill="none" stroke="#000000" d="M 336 328 L 522 328 L 522 623 L 336 623 L 336 328 Z Z" stroke-miterlimit="10"/></g><g transform="translate(-14,-54) scale(1,1)"><path fill="none" stroke="#000000" d="M 336 353 L 522 353" stroke-miterlimit="10"/></g><g transform="translate(-14,-54) scale(1,1)"><path fill="none" stroke="#000000" d="M 336 511 L 522 511" stroke-miterlimit="10"/></g><g transform="translate(-14,-54) scale(1,1)"><g><path fill="none" stroke="none"/><text fill="#000000" stroke="none" font-family="Arial" font-size="13px" font-style="normal" font-weight="bold" text-decoration="none" x="400.5" y="347.5">Generator</text></g></g><g transform="translate(-14,-54) scale(1,1)"><g><path fill="none" stroke="none"/><text fill="#000000" stroke="none" font-family="Arial" font-size="13px" font-style="normal" font-weight="normal" text-decoration="none" x="341" y="370.5">-path_device: str</text></g></g><g transform="translate(-14,-54) scale(1,1)"><g><path fill="none" stroke="none"/><text fill="#000000" stroke="none" font-family="Arial" font-size="13px" font-style="normal" font-weight="normal" text-decoration="none" x="341" y="385.5">-power_min: float</text></g></g><g transform="translate(-14,-54) scale(1,1)"><g><path fill="none" stroke="none"/><text fill="#000000" stroke="none" font-family="Arial" font-size="13px" font-style="normal" font-weight="normal" text-decoration="none" x="341" y="400.5">-power_max: float</text></g></g><g transform="translate(-14,-54) scale(1,1)"><g><path fill="none" stroke="none"/><text fill="#000000" stroke="none" font-family="Arial" font-size="13px" font-style="normal" font-weight="normal" text-decoration="none" x="341" y="415.5">-time_sample_period: time</text></g></g><g transform="translate(-14,-54) scale(1,1)"><g><path fill="none" stroke="none"/><text fill="#000000" stroke="none" font-family="Arial" font-size="13px" font-style="normal" font-weight="normal" text-decoration="none" x="341" y="430.5">-time_daily_upload: time</text></g></g><g transform="translate(-14,-54) scale(1,1)"><g><path fill="none" stroke="none"/><text fill="#000000" stroke="none" font-family="Arial" font-size="13px" font-style="normal" font-weight="normal" text-decoration="none" x="341" y="445.5">-is_ready_to_read: bool</text></g></g><g transform="translate(-14,-54) scale(1,1)"><g><path fill="none" stroke="none"/><text fill="#000000" stroke="none" font-family="Arial" font-size="13px" font-style="normal" font-weight="normal" text-decoration="none" x="341" y="460.5">-is_reading_from_file: bool</text></g></g><g transform="translate(-14,-54) scale(1,1)"><g><path fill="none" stroke="none"/><text fill="#000000" stroke="none" font-family="Arial" font-size="13px" font-style="normal" font-weight="normal" text-decoration="none" x="341" y="475.5">-my_readings[]: PowerReading</text></g></g><g transform="translate(-14,-54) scale(1,1)"><g><path fill="none" stroke="none"/><text fill="#000000" stroke="none" font-family="Arial" font-size="13px" font-style="normal" font-weight="normal" text-decoration="none" x="341" y="490.5">-time_sunrise: time</text></g></g><g transform="translate(-14,-54) scale(1,1)"><g><path fill="none" stroke="none"/><text fill="#000000" stroke="none" font-family="Arial" font-size="13px" font-style="normal" font-weight="normal" text-decoration="none" x="341" y="505.5">-my_stats: PowerStats</text></g></g><g transform="translate(-14,-54) scale(1,1)"><g><path fill="none" stroke="none"/><text fill="#000000" stroke="none" font-family="Arial" font-size="13px" font-style="normal" font-weight="normal" text-decoration="none" x="341" y="528.5">+get_is_ready_to_read()</text></g></g><g transform="translate(-14,-54) scale(1,1)"><g><path fill="none" stroke="none"/><text fill="#000000" stroke="none" font-family="Arial" font-size="13px" font-style="normal" font-weight="normal" text-decoration="none" x="341" y="543.5">+set_upload_time_daily()</text></g></g><g transform="translate(-14,-54) scale(1,1)"><g><path fill="none" stroke="none"/><text fill="#000000" stroke="none" font-family="Arial" font-size="13px" font-style="normal" font-weight="normal" text-decoration="none" x="341" y="558.5">+set_path_device()</text></g></g><g transform="translate(-14,-54) scale(1,1)"><g><path fill="none" stroke="none"/><text fill="#000000" stroke="none" font-family="Arial" font-size="13px" font-style="normal" font-weight="normal" text-decoration="none" x="341" y="573.5">+set_power_min()</text></g></g><g transform="translate(-14,-54) scale(1,1)"><g><path fill="none" stroke="none"/><text fill="#000000" stroke="none" font-family="Arial" font-size="13px" font-style="normal" font-weight="normal" text-decoration="none" x="341" y="588.5">+set_power_max()</text></g></g><g transform="translate(-14,-54) scale(1,1)"><g><path fill="none" stroke="none"/><text fill="#000000" stroke="none" font-family="Arial" font-size="13px" font-style="normal" font-weight="normal" text-decoration="none" x="341" y="603.5">+set_time_sample()</text></g></g><g transform="translate(-14,-54) scale(1,1)"><g><path fill="none" stroke="none"/><text fill="#000000" stroke="none" font-family="Arial" font-size="13px" font-style="normal" font-weight="normal" text-decoration="none" x="341" y="618.5">+calculate_stats()</text></g></g><g transform="translate(-14,-54) scale(1,1)"><rect fill="#C0C0C0" stroke="none" x="567" y="191" width="167" height="280" opacity="0.2"/></g><g transform="translate(-14,-54) scale(1,1)"><rect fill="#ffffff" stroke="none" x="560" y="184" width="167" height="280"/></g><g transform="translate(-14,-54) scale(1,1)"><path fill="none" stroke="#000000" d="M 560 184 L 727 184 L 727 464 L 560 464 L 560 184 Z Z" stroke-miterlimit="10"/></g><g transform="translate(-14,-54) scale(1,1)"><path fill="none" stroke="#000000" d="M 560 209 L 727 209" stroke-miterlimit="10"/></g><g transform="translate(-14,-54) scale(1,1)"><path fill="none" stroke="#000000" d="M 560 322 L 727 322" stroke-miterlimit="10"/></g><g transform="translate(-14,-54) scale(1,1)"><g><path fill="none" stroke="none"/><text fill="#000000" stroke="none" font-family="Arial" font-size="13px" font-style="normal" font-weight="bold" text-decoration="none" x="608" y="203.5">DataService</text></g></g><g transform="translate(-14,-54) scale(1,1)"><g><path fill="none" stroke="none"/><text fill="#000000" stroke="none" font-family="Arial" font-size="13px" font-style="normal" font-weight="normal" text-decoration="none" x="565" y="226.5">-host_URL: str</text></g></g><g transform="translate(-14,-54) scale(1,1)"><g><path fill="none" stroke="none"/><text fill="#000000" stroke="none" font-family="Arial" font-size="13px" font-style="normal" font-weight="normal" text-decoration="none" x="565" y="241.5">-host_URI_status: str</text></g></g><g transform="translate(-14,-54) scale(1,1)"><g><path fill="none" stroke="none"/><text fill="#000000" stroke="none" font-family="Arial" font-size="13px" font-style="normal" font-weight="normal" text-decoration="none" x="565" y="256.5">-host_URI_output: str</text></g></g><g transform="translate(-14,-54) scale(1,1)"><g><path fill="none" stroke="none"/><text fill="#000000" stroke="none" font-family="Arial" font-size="13px" font-style="normal" font-weight="normal" text-decoration="none" x="565" y="271.5">-client_key: str</text></g></g><g transform="translate(-14,-54) scale(1,1)"><g><path fill="none" stroke="none"/><text fill="#000000" stroke="none" font-family="Arial" font-size="13px" font-style="normal" font-weight="normal" text-decoration="none" x="565" y="286.5">-client_system_ID: str</text></g></g><g transform="translate(-14,-54) scale(1,1)"><g><path fill="none" stroke="none"/><text fill="#000000" stroke="none" font-family="Arial" font-size="13px" font-style="normal" font-weight="normal" text-decoration="none" x="565" y="301.5">-host_status_interval: time</text></g></g><g transform="translate(-14,-54) scale(1,1)"><g><path fill="none" stroke="none"/><text fill="#000000" stroke="none" font-family="Arial" font-size="13px" font-style="normal" font-weight="normal" text-decoration="none" x="565" y="316.5">-is_ready_to_upload: bool</text></g></g><g transform="translate(-14,-54) scale(1,1)"><g><path fill="none" stroke="none"/><text fill="#000000" stroke="none" font-family="Arial" font-size="13px" font-style="normal" font-weight="normal" text-decoration="none" x="565" y="339.5">+set_host_URL()</text></g></g><g transform="translate(-14,-54) scale(1,1)"><g><path fill="none" stroke="none"/><text fill="#000000" stroke="none" font-family="Arial" font-size="13px" font-style="normal" font-weight="normal" text-decoration="none" x="565" y="354.5">+set_host_URI_status()</text></g></g><g transform="translate(-14,-54) scale(1,1)"><g><path fill="none" stroke="none"/><text fill="#000000" stroke="none" font-family="Arial" font-size="13px" font-style="normal" font-weight="normal" text-decoration="none" x="565" y="369.5">+set_host_URI_output()</text></g></g><g transform="translate(-14,-54) scale(1,1)"><g><path fill="none" stroke="none"/><text fill="#000000" stroke="none" font-family="Arial" font-size="13px" font-style="normal" font-weight="normal" text-decoration="none" x="565" y="384.5">+set_client_key()</text></g></g><g transform="translate(-14,-54) scale(1,1)"><g><path fill="none" stroke="none"/><text fill="#000000" stroke="none" font-family="Arial" font-size="13px" font-style="normal" font-weight="normal" text-decoration="none" x="565" y="399.5">+set_client_system_ID()</text></g></g><g transform="translate(-14,-54) scale(1,1)"><g><path fill="none" stroke="none"/><text fill="#000000" stroke="none" font-family="Arial" font-size="13px" font-style="normal" font-weight="normal" text-decoration="none" x="565" y="414.5">+set_host_status_interval()</text></g></g><g transform="translate(-14,-54) scale(1,1)"><g><path fill="none" stroke="none"/><text fill="#000000" stroke="none" font-family="Arial" font-size="13px" font-style="normal" font-weight="normal" text-decoration="none" x="565" y="429.5">+get_is_ready_to_upload()</text></g></g><g transform="translate(-14,-54) scale(1,1)"><g><path fill="none" stroke="none"/><text fill="#000000" stroke="none" font-family="Arial" font-size="13px" font-style="normal" font-weight="normal" text-decoration="none" x="565" y="444.5">+do_upload()</text></g></g><g transform="translate(-14,-54) scale(1,1)"><rect fill="#C0C0C0" stroke="none" x="439" y="703" width="203" height="72" opacity="0.2"/></g><g transform="translate(-14,-54) scale(1,1)"><rect fill="#ffffff" stroke="none" x="432" y="696" width="203" height="72"/></g><g transform="translate(-14,-54) scale(1,1)"><path fill="none" stroke="#000000" d="M 432 696 L 635 696 L 635 768 L 432 768 L 432 696 Z Z" stroke-miterlimit="10"/></g><g transform="translate(-14,-54) scale(1,1)"><path fill="none" stroke="#000000" d="M 432 721 L 635 721" stroke-miterlimit="10"/></g><g transform="translate(-14,-54) scale(1,1)"><path fill="none" stroke="#000000" d="M 432 759 L 635 759" stroke-miterlimit="10"/></g><g transform="translate(-14,-54) scale(1,1)"><g><path fill="none" stroke="none"/><text fill="#000000" stroke="none" font-family="Arial" font-size="13px" font-style="normal" font-weight="bold" text-decoration="none" x="493" y="715.5">PowerSystem</text></g></g><g transform="translate(-14,-54) scale(1,1)"><g><path fill="none" stroke="none"/><text fill="#000000" stroke="none" font-family="Arial" font-size="13px" font-style="normal" font-weight="normal" text-decoration="none" x="437" y="738.5">+pv_output_dot_org: DataService</text></g></g><g transform="translate(-14,-54) scale(1,1)"><g><path fill="none" stroke="none"/><text fill="#000000" stroke="none" font-family="Arial" font-size="13px" font-style="normal" font-weight="normal" text-decoration="none" x="437" y="753.5">+pv_kaco: Generator</text></g></g><g transform="translate(-14,-54) scale(1,1)"><path fill="none" stroke="#000000" d="M 518 695 L 489 624" stroke-miterlimit="10"/></g><g transform="translate(-14,-54) scale(1,1)"><path fill="#000000" stroke="none" d="M 496.7397423452364 631.8164178770941 L 489 624 L 488.94578221147236 634.9998663824342 L 497.3187518353372 644.3665993209979"/></g><g transform="translate(-14,-54) scale(1,1)"><path fill="none" stroke="#000000" d="M 496.7397423452364 631.8164178770941 L 489 624 L 488.94578221147236 634.9998663824342 L 497.3187518353372 644.3665993209979 L 496.7397423452364 631.8164178770941" stroke-miterlimit="10"/></g><g transform="translate(-14,-54) scale(1,1)"><g><path fill="none" stroke="none"/><text fill="#000000" stroke="none" font-family="Arial" font-size="13px" font-style="normal" font-weight="normal" text-decoration="none" x="518" y="677">1</text></g></g><g transform="translate(-14,-54) scale(1,1)"><g><path fill="none" stroke="none"/><text fill="#000000" stroke="none" font-family="Arial" font-size="13px" font-style="normal" font-weight="normal" text-decoration="none" x="498" y="646">0..*</text></g></g><g transform="translate(-14,-54) scale(1,1)"><path fill="none" stroke="#000000" d="M 543 695 L 605 465" stroke-miterlimit="10"/></g><g transform="translate(-14,-54) scale(1,1)"><path fill="#000000" stroke="none" d="M 606.4193495442076 475.9080450526828 L 605 465 L 598.2904790613428 473.7167843138236 L 599.2739597444379 486.24176223837566"/></g><g transform="translate(-14,-54) scale(1,1)"><path fill="none" stroke="#000000" d="M 606.4193495442076 475.9080450526828 L 605 465 L 598.2904790613428 473.7167843138236 L 599.2739597444379 486.24176223837566 L 606.4193495442076 475.9080450526828" stroke-miterlimit="10"/></g><g transform="translate(-14,-54) scale(1,1)"><g><path fill="none" stroke="none"/><text fill="#000000" stroke="none" font-family="Arial" font-size="13px" font-style="normal" font-weight="normal" text-decoration="none" x="557" y="684">1</text></g></g><g transform="translate(-14,-54) scale(1,1)"><g><path fill="none" stroke="none"/><text fill="#000000" stroke="none" font-family="Arial" font-size="13px" font-style="normal" font-weight="normal" text-decoration="none" x="601" y="496">0..*</text></g></g><g transform="translate(-14,-54) scale(1,1)"><path fill="none" stroke="#000000" d="M 335 407 L 231 331" stroke-miterlimit="10"/></g><g transform="translate(-14,-54) scale(1,1)"><path fill="#000000" stroke="none" d="M 241.68893876761973 333.59741949289594 L 231 331 L 236.72156814925884 340.39487402328456 L 248.76260468967376 343.98036496553084"/></g><g transform="translate(-14,-54) scale(1,1)"><path fill="none" stroke="#000000" d="M 241.68893876761973 333.59741949289594 L 231 331 L 236.72156814925884 340.39487402328456 L 248.76260468967376 343.98036496553084 L 241.68893876761973 333.59741949289594" stroke-miterlimit="10"/></g><g transform="translate(-14,-54) scale(1,1)"><g><path fill="none" stroke="none"/><text fill="#000000" stroke="none" font-family="Arial" font-size="13px" font-style="normal" font-weight="normal" text-decoration="none" x="321" y="391">1</text></g></g><g transform="translate(-14,-54) scale(1,1)"><g><path fill="none" stroke="none"/><text fill="#000000" stroke="none" font-family="Arial" font-size="13px" font-style="normal" font-weight="normal" text-decoration="none" x="252" y="340">1</text></g></g><g transform="translate(-14,-54) scale(1,1)"><rect fill="#C0C0C0" stroke="none" x="111" y="671" width="176" height="192" opacity="0.2"/></g><g transform="translate(-14,-54) scale(1,1)"><rect fill="#ffffff" stroke="none" x="104" y="664" width="176" height="192"/></g><g transform="translate(-14,-54) scale(1,1)"><path fill="none" stroke="#000000" d="M 104 664 L 280 664 L 280 856 L 104 856 L 104 664 Z Z" stroke-miterlimit="10"/></g><g transform="translate(-14,-54) scale(1,1)"><path fill="none" stroke="#000000" d="M 104 689 L 280 689" stroke-miterlimit="10"/></g><g transform="translate(-14,-54) scale(1,1)"><path fill="none" stroke="#000000" d="M 104 847 L 280 847" stroke-miterlimit="10"/></g><g transform="translate(-14,-54) scale(1,1)"><g><path fill="none" stroke="none"/><text fill="#000000" stroke="none" font-family="Arial" font-size="13px" font-style="normal" font-weight="bold" text-decoration="none" x="150.5" y="683.5">PowerReading</text></g></g><g transform="translate(-14,-54) scale(1,1)"><g><path fill="none" stroke="none"/><text fill="#000000" stroke="none" font-family="Arial" font-size="13px" font-style="normal" font-weight="normal" text-decoration="none" x="109" y="706.5">-use_daily: float</text></g></g><g transform="translate(-14,-54) scale(1,1)"><g><path fill="none" stroke="none"/><text fill="#000000" stroke="none" font-family="Arial" font-size="13px" font-style="normal" font-weight="normal" text-decoration="none" x="109" y="721.5">-generator_temperature: float</text></g></g><g transform="translate(-14,-54) scale(1,1)"><g><path fill="none" stroke="none"/><text fill="#000000" stroke="none" font-family="Arial" font-size="13px" font-style="normal" font-weight="normal" text-decoration="none" x="109" y="736.5">-generator_voltage: float</text></g></g><g transform="translate(-14,-54) scale(1,1)"><g><path fill="none" stroke="none"/><text fill="#000000" stroke="none" font-family="Arial" font-size="13px" font-style="normal" font-weight="normal" text-decoration="none" x="109" y="751.5">-generator_current: float</text></g></g><g transform="translate(-14,-54) scale(1,1)"><g><path fill="none" stroke="none"/><text fill="#000000" stroke="none" font-family="Arial" font-size="13px" font-style="normal" font-weight="normal" text-decoration="none" x="109" y="766.5">-generator_power: float</text></g></g><g transform="translate(-14,-54) scale(1,1)"><g><path fill="none" stroke="none"/><text fill="#000000" stroke="none" font-family="Arial" font-size="13px" font-style="normal" font-weight="normal" text-decoration="none" x="109" y="781.5">-line_voltage: float</text></g></g><g transform="translate(-14,-54) scale(1,1)"><g><path fill="none" stroke="none"/><text fill="#000000" stroke="none" font-family="Arial" font-size="13px" font-style="normal" font-weight="normal" text-decoration="none" x="109" y="796.5">-line_current_feed_in: float</text></g></g><g transform="translate(-14,-54) scale(1,1)"><g><path fill="none" stroke="none"/><text fill="#000000" stroke="none" font-family="Arial" font-size="13px" font-style="normal" font-weight="normal" text-decoration="none" x="109" y="811.5">-line_power_feed_in: float</text></g></g><g transform="translate(-14,-54) scale(1,1)"><g><path fill="none" stroke="none"/><text fill="#000000" stroke="none" font-family="Arial" font-size="13px" font-style="normal" font-weight="normal" text-decoration="none" x="109" y="826.5">-run_time_daily: float</text></g></g><g transform="translate(-14,-54) scale(1,1)"><g><path fill="none" stroke="none"/><text fill="#000000" stroke="none" font-family="Arial" font-size="13px" font-style="normal" font-weight="normal" text-decoration="none" x="109" y="841.5">-operating_state: bool</text></g></g><g transform="translate(-14,-54) scale(1,1)"><path fill="none" stroke="#000000" d="M 335 588 L 273 663" stroke-miterlimit="10"/></g><g transform="translate(-14,-54) scale(1,1)"><g><path fill="none" stroke="none"/><text fill="#000000" stroke="none" font-family="Arial" font-size="13px" font-style="normal" font-weight="normal" text-decoration="none" x="308" y="603">1</text></g></g><g transform="translate(-14,-54) scale(1,1)"><g><path fill="none" stroke="none"/><text fill="#000000" stroke="none" font-family="Arial" font-size="13px" font-style="normal" font-weight="normal" text-decoration="none" x="267" y="645">0..*</text></g></g><g transform="translate(-14,-54) scale(1,1)"><path fill="#ffffff" stroke="none" d="M 296 64 L 384 64 L 394 74 L 394 152 L 296 152 L 296 64"/></g><g transform="translate(-14,-54) scale(1,1)"><path fill="none" stroke="#000000" d="M 296 64 L 384 64 L 394 74 L 394 152 L 296 152 L 296 64 L 296 64" stroke-miterlimit="10"/></g><g transform="translate(-14,-54) scale(1,1)"><path fill="none" stroke="#000000" d="M 384 64 L 384 74 L 394 74 L 384 64" stroke-miterlimit="10"/></g><g transform="translate(-14,-54) scale(1,1)"><g><path fill="none" stroke="none"/><text fill="#000000" stroke="none" font-family="Arial" font-size="13px" font-style="normal" font-weight="normal" text-decoration="none" x="301" y="82">PowerStats are</text><text fill="#000000" stroke="none" font-family="Arial" font-size="13px" font-style="normal" font-weight="normal" text-decoration="none" x="301" y="95">calculated as</text><text fill="#000000" stroke="none" font-family="Arial" font-size="13px" font-style="normal" font-weight="normal" text-decoration="none" x="301" y="108">the power</text><text fill="#000000" stroke="none" font-family="Arial" font-size="13px" font-style="normal" font-weight="normal" text-decoration="none" x="301" y="121">readings are</text><text fill="#000000" stroke="none" font-family="Arial" font-size="13px" font-style="normal" font-weight="normal" text-decoration="none" x="301" y="134">updated</text></g></g><g transform="translate(-14,-54) scale(1,1)"><path fill="none" stroke="#000000" d="M 231 205 L 295 151" stroke-miterlimit="10" stroke-dasharray="3"/></g><g transform="translate(-14,-54) scale(1,1)"><path fill="#ffffff" stroke="none" d="M 24 536 L 122 536 L 132 546 L 132 637 L 24 637 L 24 536"/></g><g transform="translate(-14,-54) scale(1,1)"><path fill="none" stroke="#000000" d="M 24 536 L 122 536 L 132 546 L 132 637 L 24 637 L 24 536 L 24 536" stroke-miterlimit="10"/></g><g transform="translate(-14,-54) scale(1,1)"><path fill="none" stroke="#000000" d="M 122 536 L 122 546 L 132 546 L 122 536" stroke-miterlimit="10"/></g><g transform="translate(-14,-54) scale(1,1)"><g><path fill="none" stroke="none"/><text fill="#000000" stroke="none" font-family="Arial" font-size="13px" font-style="normal" font-weight="normal" text-decoration="none" x="29" y="554">PowerReadings</text><text fill="#000000" stroke="none" font-family="Arial" font-size="13px" font-style="normal" font-weight="normal" text-decoration="none" x="29" y="567">either come from</text><text fill="#000000" stroke="none" font-family="Arial" font-size="13px" font-style="normal" font-weight="normal" text-decoration="none" x="29" y="580">a csv file or from</text><text fill="#000000" stroke="none" font-family="Arial" font-size="13px" font-style="normal" font-weight="normal" text-decoration="none" x="29" y="593">serial data from</text><text fill="#000000" stroke="none" font-family="Arial" font-size="13px" font-style="normal" font-weight="normal" text-decoration="none" x="29" y="606">the inverter</text></g></g><g transform="translate(-14,-54) scale(1,1)"><path fill="none" stroke="#000000" d="M 128 663 L 112 639" stroke-miterlimit="10" stroke-dasharray="3"/></g><g transform="translate(-14,-54) scale(1,1)"><path fill="#ffffff" stroke="none" d="M 768 64 L 870 64 L 880 74 L 880 139 L 768 139 L 768 64"/></g><g transform="translate(-14,-54) scale(1,1)"><path fill="none" stroke="#000000" d="M 768 64 L 870 64 L 880 74 L 880 139 L 768 139 L 768 64 L 768 64" stroke-miterlimit="10"/></g><g transform="translate(-14,-54) scale(1,1)"><path fill="none" stroke="#000000" d="M 870 64 L 870 74 L 880 74 L 870 64" stroke-miterlimit="10"/></g><g transform="translate(-14,-54) scale(1,1)"><g><path fill="none" stroke="none"/><text fill="#000000" stroke="none" font-family="Arial" font-size="13px" font-style="normal" font-weight="normal" text-decoration="none" x="773" y="82">DataService is</text><text fill="#000000" stroke="none" font-family="Arial" font-size="13px" font-style="normal" font-weight="normal" text-decoration="none" x="773" y="95">where the data is</text><text fill="#000000" stroke="none" font-family="Arial" font-size="13px" font-style="normal" font-weight="normal" text-decoration="none" x="773" y="108">published to</text><text fill="#000000" stroke="none" font-family="Arial" font-size="13px" font-style="normal" font-weight="normal" text-decoration="none" x="773" y="121">e.g.pvoutput.org</text></g></g><g transform="translate(-14,-54) scale(1,1)"><path fill="none" stroke="#000000" d="M 728 220 L 792 141" stroke-miterlimit="10" stroke-dasharray="3"/></g></g></svg>